<?xml version="1.0" encoding="iso-8859-1"?>
<!-- Generator: Adobe Illustrator 19.0.0, SVG Export Plug-In . SVG Version: 6.00 Build 0)  -->
<svg version="1.1" id="Capa_1" xmlns="http://www.w3.org/2000/svg" xmlns:xlink="http://www.w3.org/1999/xlink" x="0px" y="0px"
	 viewBox="0 0 511.993 511.993" style="enable-background:new 0 0 511.993 511.993;" xml:space="preserve">
<linearGradient id="SVGID_1_" gradientUnits="userSpaceOnUse" x1="69.654" y1="448.2119" x2="416.1364" y2="101.7296" gradientTransform="matrix(1.0449 0 0 -1.0449 2.1993 543.3086)">
	<stop  offset="0" style="stop-color:#FFE56C"/>
	<stop  offset="1" style="stop-color:#F2B329"/>
</linearGradient>
<circle style="fill:url(#SVGID_1_);" cx="255.996" cy="255.996" r="255.996"/>
<linearGradient id="SVGID_2_" gradientUnits="userSpaceOnUse" x1="326.7844" y1="441.7284" x2="409.6636" y2="358.8591" gradientTransform="matrix(1.0449 0 0 -1.0449 2.1993 543.3086)">
	<stop  offset="0" style="stop-color:#FF0335"/>
	<stop  offset="1" style="stop-color:#990011"/>
</linearGradient>
<path style="fill:url(#SVGID_2_);" d="M400.804,197.788l-86.592-86.592l38.711-38.711c11.097-11.097,29.256-11.097,40.353,0
	l46.238,46.238c11.097,11.097,11.097,29.256,0,40.353L400.804,197.788z"/>
<linearGradient id="SVGID_3_" gradientUnits="userSpaceOnUse" x1="291.4472" y1="406.3877" x2="374.3192" y2="323.5157" gradientTransform="matrix(1.0449 0 0 -1.0449 2.1993 543.3086)">
	<stop  offset="0" style="stop-color:#FFFFFF"/>
	<stop  offset="1" style="stop-color:#C8C6CC"/>
</linearGradient>
<polygon style="fill:url(#SVGID_3_);" points="381.478,217.113 294.887,130.522 318.568,106.84 405.16,193.432 "/>
<linearGradient id="SVGID_4_" gradientUnits="userSpaceOnUse" x1="159.8428" y1="274.7981" x2="242.7194" y2="191.9115" gradientTransform="matrix(1.0449 0 0 -1.0449 2.1993 543.3086)">
	<stop  offset="0" style="stop-color:#FF8900"/>
	<stop  offset="1" style="stop-color:#9A4C00"/>
</linearGradient>
<polygon style="fill:url(#SVGID_4_);" points="297.372,128.037 130.438,294.97 84.364,427.636 217.03,381.562 383.963,214.627 "/>
<linearGradient id="SVGID_5_" gradientUnits="userSpaceOnUse" x1="79.9647" y1="194.9052" x2="162.8367" y2="112.0332" gradientTransform="matrix(1.0449 0 0 -1.0449 2.1993 543.3086)">
	<stop  offset="0" style="stop-color:#FFC06B"/>
	<stop  offset="1" style="stop-color:#E66900"/>
</linearGradient>
<polygon style="fill:url(#SVGID_5_);" points="84.364,427.636 217.03,381.562 130.438,294.97 "/>
<linearGradient id="SVGID_6_" gradientUnits="userSpaceOnUse" x1="79.2182" y1="147.6387" x2="115.5702" y2="111.2868" gradientTransform="matrix(1.0449 0 0 -1.0449 2.1993 543.3086)">
	<stop  offset="0" style="stop-color:#57565C"/>
	<stop  offset="1" style="stop-color:#000000"/>
</linearGradient>
<polygon style="fill:url(#SVGID_6_);" points="142.558,407.426 104.574,369.442 84.364,427.636 "/>
<g>
</g>
<g>
</g>
<g>
</g>
<g>
</g>
<g>
</g>
<g>
</g>
<g>
</g>
<g>
</g>
<g>
</g>
<g>
</g>
<g>
</g>
<g>
</g>
<g>
</g>
<g>
</g>
<g>
</g>
</svg>
